<?xml version="1.0" encoding="utf-8"?>
<!-- Generator: Adobe Illustrator 16.0.3, SVG Export Plug-In . SVG Version: 6.00 Build 0)  -->
<!DOCTYPE svg PUBLIC "-//W3C//DTD SVG 1.1//EN" "http://www.w3.org/Graphics/SVG/1.1/DTD/svg11.dtd">
<svg version="1.1" id="Calque_3" xmlns="http://www.w3.org/2000/svg" xmlns:xlink="http://www.w3.org/1999/xlink" x="0px" y="0px"
	 width="450px" height="240px" viewBox="0 0 450 240" enable-background="new 0 0 450 240" xml:space="preserve">
<g>
	<path fill-rule="evenodd" clip-rule="evenodd" d="M212.979,188.261c-0.017-0.405-0.049-0.812-0.049-1.218
		c-0.002-19.937-0.002-39.874-0.002-59.812c0-0.404,0-0.809,0-1.33c5.047,0,10.033,0,15.194,0c0,2.522,0,5.06,0,7.989
		c0.848-1.272,1.415-2.228,2.081-3.106c4.532-5.983,10.775-8.125,17.945-7.259c7.063,0.854,11.582,5.339,13.867,11.84
		c3.042,8.658,3.166,17.513,0.038,26.173c-3.707,10.271-15.371,15.103-25.247,10.724c-3.565-1.581-6.134-4.235-7.971-7.637
		c-0.146-0.269-0.294-0.536-0.657-0.782c0,8.14,0,16.278,0,24.418C223.112,188.261,218.045,188.261,212.979,188.261z
		 M248.19,148.499c-0.073-1.229,0.016-2.303-0.228-3.294c-0.574-2.348-1.033-4.783-2.038-6.953
		c-1.463-3.164-4.248-4.733-7.752-4.747c-3.521-0.015-6.265,1.619-7.763,4.743c-1.016,2.115-1.725,4.479-2.045,6.806
		c-0.563,4.089-0.367,8.181,1.158,12.134c2.211,5.726,10.567,8.166,15.251,2.276C247.398,156.165,248.097,152.341,248.19,148.499z"
		/>
	<path fill-rule="evenodd" clip-rule="evenodd" d="M2.089,99.237c5.419,0,10.839,0,16.293,0c0.194,1.108,0.287,2.194,0.581,3.223
		c1.303,4.558,6.5,6.501,10.449,3.945c3.217-2.082,3.439-5.662,0.146-7.526c-3.475-1.968-7.248-3.414-10.904-5.058
		c-2.673-1.2-5.41-2.268-8.047-3.543c-6.26-3.025-7.798-7.195-5.582-14.844c1.275-4.402,4.666-6.971,8.857-8.494
		c4.909-1.783,10.005-1.864,15.126-1.481c3.762,0.282,7.422,1.033,10.784,2.861c4.754,2.583,7.691,7.768,7.112,12.677
		c-5.199,0-10.412,0-15.679,0c-0.107-0.662-0.208-1.32-0.322-1.977c-0.405-2.339-1.719-3.831-4.08-4.309
		c-2.484-0.503-4.798-0.284-6.545,1.819c-1.393,1.674-1.217,3.815,0.654,4.901c1.853,1.075,3.889,1.895,5.929,2.57
		c4.279,1.416,8.615,2.664,12.926,3.982c0.086,0.026,0.167,0.069,0.252,0.1c4.921,1.794,8.529,4.623,8.751,10.433
		c0.25,6.535-2.03,11.576-8.13,14.472c-3.945,1.873-8.193,2.454-12.505,2.642c-5.261,0.229-10.488,0.017-15.514-1.76
		c-5.552-1.963-9.333-5.553-10.342-11.595c-0.02-0.117-0.138-0.218-0.21-0.326C2.089,101.046,2.089,100.142,2.089,99.237z"/>
	<path fill-rule="evenodd" clip-rule="evenodd" d="M226.007,51.739c0,5.283,0,10.565,0,15.996c3.366,0,6.639,0,9.976,0
		c0,3.473,0,6.796,0,10.235c-3.28,0-6.52,0-9.975,0c0,0.54,0,0.969,0,1.396c-0.001,5.833-0.005,11.667,0,17.501
		c0.002,3.202,1.361,4.9,4.526,5.375c1.729,0.261,3.501,0.235,5.356,0.345c0.032,0.219,0.112,0.516,0.114,0.813
		c0.009,2.895-0.002,5.788,0.01,8.682c0.003,0.624,0,1.115-0.821,1.274c-5.766,1.118-11.552,1.69-17.332,0.247
		c-4.689-1.172-8.094-4.335-7.962-10.26c0.175-7.864,0.042-15.735,0.042-23.604c0-0.492,0-0.984,0-1.665c-3.074,0-6.067,0-9.143,0
		c0-3.51,0-6.832,0-10.272c2.985,0,5.952,0,9.144,0c0-2.167,0.103-4.231-0.036-6.28c-0.094-1.393,0.412-2.055,1.64-2.643
		c4.317-2.063,8.573-4.255,12.846-6.411c0.382-0.193,0.716-0.485,1.072-0.731C225.646,51.739,225.826,51.739,226.007,51.739z"/>
	<path fill-rule="evenodd" clip-rule="evenodd" d="M68.094,130.16c-5.137,0-10.09,0-15.127,0c0-20.794,0-41.52,0-62.327
		c4.996,0,9.949,0,15.067,0c0,2.561,0,5.146,0,7.731c0.097,0.029,0.193,0.059,0.29,0.089c0.271-0.426,0.557-0.842,0.81-1.278
		c5.54-9.598,17.905-10.884,24.494-7.189c4.241,2.378,7.063,5.929,8.559,10.441c2.814,8.484,2.949,17.089,0.019,25.547
		c-3.57,10.307-14.938,15.328-24.938,11.242c-3.797-1.552-6.529-4.288-8.428-7.889c-0.146-0.277-0.287-0.557-0.436-0.832
		c-0.019-0.034-0.074-0.049-0.309-0.198c0,4.192,0,8.263,0,12.333C68.094,121.895,68.094,125.959,68.094,130.16z M88.263,90.199
		c-0.141-1.526-0.079-3.107-0.47-4.566c-0.566-2.109-1.136-4.334-2.275-6.153c-3.471-5.543-11.313-5.38-14.813,0.155
		c-2.194,3.467-2.584,7.375-2.564,11.326c0.015,2.889,0.397,5.742,1.553,8.462c2.322,5.468,10.342,7.698,14.872,2.265
		C87.362,98.332,88.206,94.423,88.263,90.199z"/>
	<path fill-rule="evenodd" clip-rule="evenodd" d="M133.97,115.854c-5.138-0.308-10.084-1.217-14.585-3.795
		c-7.344-4.206-10.743-10.84-11.395-19.044c-0.362-4.56,0.191-9.025,2-13.274c2.669-6.269,7.287-10.542,13.705-12.652
		c8.165-2.685,16.42-2.664,24.411,0.62c9.213,3.786,13.927,10.993,14.673,20.821c0.436,5.733-0.653,11.174-3.865,16.036
		c-4.187,6.336-10.349,9.516-17.671,10.647C138.844,115.584,136.396,115.648,133.97,115.854z M145.047,90.5
		c-0.119-3.933-0.592-7.813-2.634-11.318c-1.073-1.841-2.498-3.313-4.533-4.093c-3.875-1.485-8.254,0.093-10.313,4.172
		c-3.661,7.254-3.614,14.745-0.21,22.056c1.951,4.191,5.576,5.856,9.514,4.967c3.038-0.686,4.836-2.826,6.12-5.491
		C144.554,97.548,144.938,94.059,145.047,90.5z"/>
	<path fill-rule="evenodd" clip-rule="evenodd" d="M159.739,152.13c-11.58,0-22.92,0-34.464,0c0.006,3.62,0.01,7.197,2.508,10.021
		c2.456,2.777,5.824,2.921,9.156,2.153c2.87-0.662,4.869-2.459,5.556-5.489c0.073-0.32,0.519-0.793,0.795-0.796
		c5.192-0.048,10.386-0.036,15.786-0.036c-0.188,0.877-0.304,1.618-0.506,2.335c-1.768,6.261-5.785,10.316-12.066,11.997
		c-7.063,1.891-14.221,2.055-21.321,0.356c-8.864-2.121-14.322-8.458-15.595-17.693c-0.696-5.052-0.691-10.087,0.495-15.078
		c1.904-8.009,6.781-13.227,14.748-15.365c6.128-1.645,12.349-1.696,18.514-0.227c8.296,1.978,13.037,7.584,14.98,15.614
		c0.801,3.312,0.974,6.776,1.403,10.175C159.806,150.709,159.739,151.338,159.739,152.13z M125.383,143.426c0.567,0,1.056,0,1.544,0
		c4.021,0,8.042,0,12.063,0.001c4.367,0.001,4.461-0.096,3.352-4.398c-0.794-3.078-2.432-5.421-5.751-6.174
		C130.335,131.436,124.767,136.576,125.383,143.426z"/>
	<path fill-rule="evenodd" clip-rule="evenodd" d="M318.318,152.143c-11.444,0-22.818,0-34.309,0
		c-0.012,3.26,0.112,6.356,1.774,9.137c1.594,2.671,5.341,3.934,9.161,3.186c3.591-0.703,5.693-2.798,6.354-6.399
		c5.432,0,10.88,0,16.475,0c-0.456,2.893-1.472,5.497-3.11,7.858c-2.591,3.733-6.324,5.755-10.629,6.716
		c-6.651,1.483-13.366,1.672-20.017,0.059c-8.604-2.087-13.684-7.659-15.411-16.295c-1.17-5.845-1.104-11.682,0.459-17.452
		c2.041-7.535,6.905-12.359,14.401-14.393c6.166-1.673,12.432-1.729,18.645-0.234c7.46,1.795,12.126,6.635,14.466,13.829
		c1.354,4.161,1.804,8.464,1.858,12.818C318.439,151.32,318.367,151.671,318.318,152.143z M283.986,143.332c5.9,0,11.647,0,17.507,0
		c-0.185-3.779-0.513-7.459-4.04-9.598c-2.986-1.812-6.205-1.584-9.102,0.303C285.069,136.176,284.104,139.532,283.986,143.332z"/>
	<path fill-rule="evenodd" clip-rule="evenodd" d="M393.826,157.258c5.504,0,10.912,0,16.134,0c0.412,1.561,0.63,3.055,1.2,4.4
		c1.032,2.433,3.053,3.628,5.663,3.743c2.486,0.11,4.682-0.554,6.075-2.807c1.235-1.999,0.953-3.829-0.964-5.244
		c-1.333-0.985-2.797-1.854-4.316-2.511c-4.556-1.968-9.21-3.709-13.736-5.74c-1.913-0.856-3.677-2.111-5.365-3.376
		c-1.628-1.221-2.351-3.057-2.567-5.063c-0.811-7.53,2.626-13.385,9.829-15.671c8.487-2.694,17.063-2.537,25.273,1.165
		c5.35,2.412,7.73,6.95,7.778,12.873c-5.266,0-10.485,0-15.786,0c-0.163-0.865-0.272-1.8-0.521-2.696
		c-0.633-2.282-2.299-3.402-4.536-3.687c-2.45-0.311-4.736,0.054-6.26,2.286c-1.121,1.642-0.892,3.436,0.872,4.462
		c1.929,1.12,4.037,1.994,6.159,2.703c4.107,1.372,8.281,2.553,12.424,3.817c0.346,0.105,0.677,0.256,1.014,0.387
		c4.474,1.749,7.894,4.351,8.244,9.667c0.406,6.163-1.282,11.265-6.954,14.476c-3.291,1.862-6.901,2.661-10.612,3.006
		c-6.202,0.577-12.377,0.531-18.369-1.491c-6.826-2.304-10.689-7.441-10.745-14.198
		C393.757,157.628,393.793,157.495,393.826,157.258z"/>
	<path fill-rule="evenodd" clip-rule="evenodd" d="M283.344,81.027c-5.253,0-10.436,0-15.714,0
		c-0.118-0.731-0.214-1.479-0.364-2.215c-0.489-2.402-1.993-3.848-4.52-4.209c-2.508-0.359-4.82,0.019-6.355,2.323
		c-1.08,1.621-0.804,3.46,0.892,4.479c1.605,0.967,3.365,1.75,5.149,2.336c4.713,1.553,9.537,2.784,14.19,4.492
		c2.186,0.803,4.366,2.106,6.034,3.716c2.856,2.756,2.787,6.539,2.376,10.187c-0.648,5.765-4.072,9.379-9.318,11.431
		c-3.576,1.399-7.333,1.906-11.142,2.063c-5.537,0.228-11.029,0-16.281-2.03c-6.302-2.435-9.829-7.445-9.82-13.866
		c0.001-0.127,0.045-0.255,0.084-0.462c5.409,0,10.811,0,16.168,0c0.284,1.285,0.428,2.555,0.845,3.729
		c1.518,4.268,6.646,5.868,10.395,3.306c3.047-2.082,3.206-5.505,0.066-7.387c-2.808-1.684-5.888-2.922-8.881-4.286
		c-3.855-1.758-7.801-3.332-11.6-5.203c-2.462-1.214-4.374-3.166-4.794-6.043c-1.021-6.983,1.498-13.262,8.951-16.217
		c5.095-2.021,10.413-2.098,15.765-1.699c3.67,0.274,7.246,1,10.537,2.759c4.774,2.552,7.126,6.612,7.413,11.948
		C283.434,80.436,283.375,80.699,283.344,81.027z"/>
	<path fill-rule="evenodd" clip-rule="evenodd" d="M158.103,171.212c5.667-8.278,11.146-16.283,16.658-24.337
		c-4.891-6.962-9.765-13.897-14.755-21c0.572-0.039,0.952-0.087,1.332-0.087c5.155-0.005,10.31,0.027,15.464-0.03
		c1.005-0.011,1.513,0.325,1.985,1.186c1.824,3.326,3.733,6.606,5.611,9.901c0.24,0.422,0.495,0.834,0.852,1.435
		c0.659-1.162,1.234-2.166,1.797-3.176c1.559-2.801,3.093-5.616,4.689-8.395c0.228-0.395,0.747-0.879,1.136-0.884
		c5.149-0.059,10.299-0.039,15.715-0.039c-0.406,0.617-0.682,1.056-0.976,1.48c-4.263,6.171-8.515,12.351-12.81,18.5
		c-0.567,0.813-0.606,1.375-0.025,2.238c4.89,7.274,9.719,14.59,14.564,21.894c0.223,0.334,0.43,0.68,0.738,1.169
		c-0.43,0.058-0.752,0.139-1.074,0.14c-5.381,0.008-10.762-0.017-16.143,0.027c-0.881,0.008-1.266-0.354-1.616-1.08
		c-2.259-4.674-4.554-9.329-6.841-13.988c-0.196-0.398-0.419-0.783-0.724-1.349c-0.334,0.515-0.605,0.898-0.844,1.301
		c-2.789,4.7-5.558,9.411-8.379,14.092c-0.259,0.43-0.824,0.952-1.254,0.958C168.281,171.235,163.355,171.212,158.103,171.212z"/>
	<path fill-rule="evenodd" clip-rule="evenodd" d="M356.091,125.757c3.08,0,6.05,0,9.19,0c0-2.351-0.04-4.599,0.031-6.842
		c0.016-0.484,0.302-1.202,0.679-1.398c4.999-2.603,10.036-5.131,15.24-7.766c0.03,0.628,0.071,1.096,0.071,1.564
		c0.007,4.296,0.063,8.594-0.031,12.888c-0.029,1.357,0.4,1.656,1.675,1.611c2.744-0.099,5.494-0.03,8.321-0.03
		c0,3.408,0,6.685,0,10.145c-2.679,0-5.329-0.01-7.979,0.003c-2.026,0.01-1.874-0.278-1.877,1.898
		c-0.006,5.607-0.006,11.216,0,16.823c0.004,3.658,1.3,5.221,4.923,5.71c1.591,0.216,3.217,0.17,4.963,0.248
		c0,3.291,0.02,6.626-0.035,9.961c-0.006,0.283-0.479,0.744-0.798,0.809c-5.584,1.134-11.217,1.462-16.816,0.286
		c-3.71-0.778-6.743-2.669-7.901-6.591c-0.314-1.065-0.44-2.224-0.444-3.339c-0.038-8.05-0.021-16.1-0.021-24.15
		c0-0.489,0-0.98,0-1.627c-3.108,0-6.113,0-9.19,0C356.091,132.526,356.091,129.248,356.091,125.757z"/>
	<path fill-rule="evenodd" clip-rule="evenodd" d="M338.152,171.137c-5.42,0-10.646,0-15.948,0c0-15.111,0-30.147,0-45.268
		c5.287,0,10.513,0,15.864,0c0,2.734,0,5.472,0,8.209c0.105,0.11,0.214,0.221,0.321,0.329c2.647-7.066,7.95-9.673,15.085-9.402
		c0,4.482,0,8.931,0,13.34c-2.117,0.258-4.235,0.377-6.296,0.79c-6.164,1.236-9.025,4.831-9.026,11.14
		c-0.001,6.423,0,12.846,0,19.269C338.152,170.034,338.152,170.525,338.152,171.137z"/>
	<path fill-rule="evenodd" clip-rule="evenodd" d="M166.858,113.059c0-15.116,0-30.143,0-45.238c5.29,0,10.508,0,15.855,0
		c0,2.806,0,5.547,0,8.29c0.099,0.048,0.2,0.095,0.298,0.142c1.362-2.931,2.959-5.658,5.87-7.281
		c2.886-1.608,6.015-2.014,9.401-2.007c0,2.669,0,5.233,0,7.798c0,1.446-0.054,2.896,0.02,4.338
		c0.051,1.014-0.218,1.305-1.314,1.428c-2.627,0.295-5.322,0.577-7.809,1.406c-4.104,1.368-6.258,4.531-6.338,8.849
		c-0.129,6.868-0.081,13.74-0.106,20.609c-0.003,0.532,0,1.064,0,1.667C177.392,113.059,172.207,113.059,166.858,113.059z"/>
	<g>
		<path fill-rule="evenodd" clip-rule="evenodd" d="M447.483,120.523c0.003,3.685-2.991,6.678-6.677,6.678
			c-3.688,0-6.68-2.993-6.679-6.678c0.003-3.688,2.994-6.68,6.68-6.676C444.496,113.851,447.48,116.835,447.483,120.523z
			 M435.484,120.524c0.001,2.939,2.383,5.322,5.322,5.321c2.938-0.001,5.321-2.385,5.321-5.322
			c-0.002-2.939-2.384-5.321-5.322-5.321C437.866,115.203,435.484,117.587,435.484,120.524z"/>
		<path fill-rule="evenodd" clip-rule="evenodd" d="M437.878,123.865c0-2.328,0-4.654,0-6.985c0.013,0,0.025,0,0.036,0
			c0.907,0,1.813-0.001,2.719,0c0.351,0,0.7,0.021,1.046,0.085c0.268,0.051,0.528,0.126,0.771,0.254
			c0.394,0.207,0.652,0.524,0.767,0.953c0.109,0.41,0.114,0.823,0.004,1.235c-0.113,0.43-0.375,0.749-0.757,0.973
			c-0.146,0.086-0.299,0.151-0.459,0.205c-0.014,0.004-0.025,0.009-0.042,0.014c0.064,0.022,0.125,0.04,0.184,0.063
			c0.236,0.095,0.424,0.257,0.584,0.45c0.2,0.242,0.352,0.514,0.489,0.793c0.315,0.64,0.631,1.28,0.946,1.92
			c0.005,0.012,0.011,0.024,0.019,0.041c-0.014,0-0.025,0.001-0.037,0.001c-0.615,0-1.229,0-1.844,0.001
			c-0.029,0.001-0.041-0.01-0.053-0.034c-0.284-0.58-0.569-1.161-0.854-1.741c-0.082-0.164-0.177-0.319-0.289-0.466
			c-0.177-0.228-0.408-0.363-0.694-0.387c-0.242-0.021-0.485-0.017-0.732-0.023c0,0.888,0,1.767,0,2.648
			C439.078,123.865,438.479,123.865,437.878,123.865z M439.681,119.977c0.011,0.001,0.021,0.002,0.03,0.002
			c0.239,0,0.479,0.001,0.719,0c0.181-0.001,0.358-0.014,0.532-0.063c0.258-0.075,0.427-0.235,0.492-0.496
			c0.056-0.222,0.058-0.445,0.004-0.668c-0.06-0.253-0.216-0.415-0.463-0.492c-0.165-0.053-0.334-0.07-0.504-0.072
			c-0.261-0.002-0.52-0.001-0.78-0.001c-0.009,0-0.02,0.001-0.03,0.003C439.681,118.785,439.681,119.379,439.681,119.977z"/>
	</g>
</g>
</svg>
